<svg xmlns="http://www.w3.org/2000/svg" xmlns:xlink="http://www.w3.org/1999/xlink" xml:space="preserve" style="shape-rendering:geometricPrecision;text-rendering:geometricPrecision;image-rendering:optimizeQuality;" viewBox="0 0 3.8894 4.762375" x="0px" y="0px" fill-rule="evenodd" clip-rule="evenodd"><defs><style type="text/css">
   
    .fil0 {fill:#1977F6}
   
  </style></defs><g><path class="fil0" d="M-0 0c0.282193,0 0.564485,0 0.846678,0 0,0.273993 0,0.548086 0,0.822079 -0.282193,0 -0.564485,0 -0.846678,0 0,-0.273993 0,-0.548086 0,-0.822079z"/><path class="fil0" d="M-0 1.49396c0.282193,0 0.564485,0 0.846678,0 0,0.273993 0,0.548086 0,0.822079 -0.282193,0 -0.564485,0 -0.846678,0 0,-0.273993 0,-0.548086 0,-0.822079z"/><path class="fil0" d="M-0 2.98792c0.282193,0 0.564485,0 0.846678,0 0,0.273993 0,0.548086 0,0.821979 -0.282193,0 -0.564485,0 -0.846678,0 0,-0.273893 0,-0.547986 0,-0.821979z"/><path class="fil0" d="M1.52136 0c0.282193,0 0.564485,0 0.846678,0 0,0.273993 0,0.548086 0,0.822079 -0.282193,0 -0.564485,0 -0.846678,0 0,-0.273993 0,-0.548086 0,-0.822079z"/><path class="fil0" d="M1.52136 1.49396c0.282193,0 0.564485,0 0.846678,0 0,0.273993 0,0.548086 0,0.822079 -0.282193,0 -0.564485,0 -0.846678,0 0,-0.273993 0,-0.548086 0,-0.822079z"/><path class="fil0" d="M1.52136 2.98792c0.282193,0 0.564485,0 0.846678,0 0,0.273993 0,0.548086 0,0.821979 -0.282193,0 -0.564485,0 -0.846678,0 0,-0.273893 0,-0.547986 0,-0.821979z"/><path class="fil0" d="M3.04272 0c0.282193,0 0.564485,0 0.846678,0 0,0.273993 0,0.548086 0,0.822079 -0.282193,0 -0.564485,0 -0.846678,0 0,-0.273993 0,-0.548086 0,-0.822079z"/><path class="fil0" d="M3.04272 1.49396c0.282193,0 0.564485,0 0.846678,0 0,0.273993 0,0.548086 0,0.822079 -0.282193,0 -0.564485,0 -0.846678,0 0,-0.273993 0,-0.548086 0,-0.822079z"/><path class="fil0" d="M3.04272 2.98792c0.282193,0 0.564485,0 0.846678,0 0,0.273993 0,0.548086 0,0.821979 -0.282193,0 -0.564485,0 -0.846678,0 0,-0.273893 0,-0.547986 0,-0.821979z"/></g><text x="0" y="18.8099" fill="#000000" font-size="5px" font-weight="bold" font-family="'Helvetica Neue', Helvetica, Arial-Unicode, Arial, Sans-serif">Created by Raden Situbondo</text><text x="0" y="23.8099" fill="#000000" font-size="5px" font-weight="bold" font-family="'Helvetica Neue', Helvetica, Arial-Unicode, Arial, Sans-serif">from the Noun Project</text></svg>